<?xml version="1.0" standalone="no"?>
<!DOCTYPE svg PUBLIC "-//W3C//DTD SVG 20010904//EN"
 "http://www.w3.org/TR/2001/REC-SVG-20010904/DTD/svg10.dtd">
<svg version="1.0" xmlns="http://www.w3.org/2000/svg"
 width="202.000000pt" height="108.000000pt" viewBox="0 0 202.000000 108.000000"
 preserveAspectRatio="xMidYMid meet">

<g transform="translate(0.000000,108.000000) scale(0.100000,-0.100000)"
fill="#ff2f00" stroke="none">
<path d="M453 797 c-256 -98 -321 -127 -283 -127 5 0 137 -50 293 -110 l283
-110 235 91 c129 50 260 100 292 111 31 11 57 23 57 26 0 5 -476 194 -570 226
-8 3 -146 -45 -307 -107z m480 -39 c103 -39 187 -75 187 -78 0 -4 -84 -40
-187 -79 l-186 -73 -188 74 c-104 40 -185 76 -180 81 6 6 338 141 361 146 3 1
89 -31 193 -71z"/>
<path d="M238 533 c-21 -9 -38 -19 -38 -22 0 -7 527 -214 545 -214 16 0 555
207 555 214 0 3 -21 13 -47 22 l-48 17 -229 -89 -228 -89 -230 89 c-126 49
-233 89 -236 88 -4 -1 -24 -8 -44 -16z"/>
<path d="M231 373 c-32 -11 -40 -18 -29 -24 26 -15 534 -209 546 -209 10 0
464 172 532 202 25 10 25 11 -20 30 -52 23 -50 23 -255 -57 -66 -25 -152 -58
-191 -72 l-71 -26 -224 87 c-123 47 -228 86 -234 85 -5 0 -30 -8 -54 -16z"/>
</g>
</svg>
